<svg xmlns="http://www.w3.org/2000/svg" viewBox="0 0 64 64">
  <rect width="64" height="64" rx="12" fill="#F6F6F4"/>
  <g stroke="#121312" stroke-width="1.6" opacity="0.85">
    <line x1="14" y1="20" x2="34" y2="14"/>
    <line x1="34" y1="14" x2="52" y2="24"/>
    <line x1="14" y1="20" x2="22" y2="40"/>
    <line x1="34" y1="14" x2="38" y2="34"/>
    <line x1="52" y1="24" x2="38" y2="34"/>
    <line x1="22" y1="40" x2="38" y2="34"/>
    <line x1="22" y1="40" x2="30" y2="54"/>
    <line x1="38" y1="34" x2="48" y2="48"/>
    <line x1="30" y1="54" x2="48" y2="48"/>
  </g>
  <circle cx="14" cy="20" r="5" fill="#2B7A78"/>
  <circle cx="34" cy="14" r="5" fill="#3D7A42"/>
  <circle cx="52" cy="24" r="5" fill="#3D7A42"/>
  <circle cx="38" cy="34" r="5.5" fill="#C86A3A"/>
  <circle cx="22" cy="40" r="5" fill="#3D7A42"/>
  <circle cx="48" cy="48" r="5" fill="#3D7A42"/>
  <circle cx="30" cy="54" r="5" fill="#7050A0"/>
</svg>
